<?xml version="1.0" encoding="UTF-8"?>
<svg version="1.1" xmlns="http://www.w3.org/2000/svg" width="423" height="390">
<path d="M0 0 C37.95 0 75.9 0 115 0 C116.20139488 2.40278975 116.12320302 3.88525367 116.12025452 6.56838989 C116.12231651 8.01133423 116.12231651 8.01133423 116.12442017 9.48342896 C116.11902725 11.07161942 116.11902725 11.07161942 116.11352539 12.69189453 C116.11367142 13.80409363 116.11381744 14.91629272 116.1139679 16.06219482 C116.1132691 19.7524203 116.10547824 23.4425958 116.09765625 27.1328125 C116.09579195 29.68586194 116.0943681 32.23891174 116.09336853 34.79196167 C116.08993553 40.83386916 116.08204747 46.87575508 116.07201904 52.91765392 C116.06085045 59.79543876 116.05534557 66.67322445 116.05032361 73.55101609 C116.03986466 87.7006874 116.02226986 101.85034271 116 116 C114.24409324 116.01706021 112.48813837 116.02921476 110.73217773 116.03930664 C109.26541847 116.05025108 109.26541847 116.05025108 107.76902771 116.06141663 C94.84773749 115.77482432 82.08604396 108.57950464 72.8046875 99.93359375 C63.55012699 90.0179932 56.28418136 75.9185468 55.92578125 62.1484375 C55.96251953 61.08496094 55.96251953 61.08496094 56 60 C55.35675781 59.98582031 54.71351563 59.97164062 54.05078125 59.95703125 C38.2968094 59.1255092 23.83233105 51.2761137 13 40 C2.82554169 28.06497144 0 15.44485762 0 0 Z " fill="#27A3EC" transform="translate(154,31)"/>
<path d="M0 0 C6.14097268 2.10484008 11.31693736 4.73902208 16.375 8.8125 C17.13296875 9.39773437 17.8909375 9.98296875 18.671875 10.5859375 C28.79622638 18.9096492 36.39564239 31.74873975 38.375 44.8125 C38.43871368 46.41553627 38.46144214 48.02087672 38.4375 49.625 C38.42847656 50.41519531 38.41945312 51.20539063 38.41015625 52.01953125 C38.39855469 52.61121094 38.38695312 53.20289063 38.375 53.8125 C39.30699219 53.89886719 40.23898438 53.98523438 41.19921875 54.07421875 C54.46511426 55.53628408 65.15595285 58.88598055 75.375 67.8125 C75.96539062 68.23789062 76.55578125 68.66328125 77.1640625 69.1015625 C88.41883936 77.47840555 93.71302628 91.49496713 95.86328125 104.84375 C96.63283063 111.29683875 96.63283063 111.29683875 95.375 113.8125 C80.54580344 113.85917875 65.71661657 113.89446856 50.88736153 113.91612434 C44.00219393 113.92644585 37.11707193 113.94052281 30.23193359 113.96337891 C23.59245783 113.98540903 16.95301712 113.99705546 10.31350327 114.00225449 C7.77525968 114.00596146 5.2370188 114.01319979 2.69879532 114.02396011 C-0.84522956 114.03839229 -4.38905613 114.04048142 -7.93310547 114.03955078 C-8.99189911 114.04674133 -10.05069275 114.05393188 -11.14157104 114.06134033 C-12.10353394 114.058591 -13.06549683 114.05584167 -14.05661011 114.05300903 C-14.89544172 114.05485262 -15.73427334 114.05669621 -16.59852409 114.05859566 C-18.625 113.8125 -18.625 113.8125 -20.625 111.8125 C-20.87109566 109.78602409 -20.87109566 109.78602409 -20.86550903 107.24411011 C-20.86825836 106.28214722 -20.87100769 105.32018433 -20.87384033 104.32907104 C-20.86664978 103.2702774 -20.85945923 102.21148376 -20.85205078 101.12060547 C-20.85248886 99.45230682 -20.85248886 99.45230682 -20.85293579 97.75030518 C-20.85153818 94.06002096 -20.83595662 90.36993661 -20.8203125 86.6796875 C-20.8165839 84.1266389 -20.81373621 81.57358887 -20.81173706 79.02053833 C-20.80487103 72.97860061 -20.78909495 66.93674918 -20.76903808 60.89484608 C-20.74670092 54.0170689 -20.73569116 47.13928832 -20.72564721 40.26148391 C-20.70472928 26.1117826 -20.66953969 11.96214525 -20.625 -2.1875 C-14.6650518 -5.1674741 -5.95472138 -1.93362268 0 0 Z " fill="#28A3EC" transform="translate(173.625,234.1875)"/>
<path d="M0 0 C1.4387146 -0.00422974 1.4387146 -0.00422974 2.90649414 -0.00854492 C3.96731201 -0.00652069 5.02812988 -0.00449646 6.12109375 -0.00241089 C7.23154053 -0.00416321 8.3419873 -0.00591553 9.48608398 -0.00772095 C13.17693621 -0.01214208 16.86774099 -0.00920055 20.55859375 -0.00582886 C23.11067718 -0.00650182 25.66276054 -0.00747178 28.21484375 -0.00872803 C33.57162137 -0.01020536 38.9283818 -0.00814391 44.28515625 -0.00338745 C50.4864309 0.00205514 56.68767268 0.00029247 62.88894653 -0.00521386 C68.8439359 -0.01029073 74.79891502 -0.00976343 80.75390625 -0.00683212 C83.2929688 -0.00616259 85.83203217 -0.00699218 88.37109375 -0.00931168 C91.91278339 -0.01183666 95.45440892 -0.00799978 98.99609375 -0.00241089 C100.05691162 -0.00443512 101.11772949 -0.00645935 102.21069336 -0.00854492 C103.16983643 -0.0057251 104.12897949 -0.00290527 105.1171875 0 C105.95564209 0.00037703 106.79409668 0.00075405 107.65795898 0.0011425 C109.55859375 0.12698364 109.55859375 0.12698364 110.55859375 1.12698364 C112.24078495 15.57728182 106.04749519 28.36057283 97.62109375 39.62698364 C86.52421545 52.81377402 71.25973863 58.29803982 54.55859375 60.12698364 C54.460625 60.93780396 54.36265625 61.74862427 54.26171875 62.58401489 C51.84204658 80.50210447 44.42076498 95.23515576 29.98632812 106.44509888 C21.28416522 112.87414697 10.55823766 116.31975044 -0.25390625 116.18948364 C-1.71763672 116.17594849 -1.71763672 116.17594849 -3.2109375 116.16213989 C-3.94699219 116.15053833 -4.68304688 116.13893677 -5.44140625 116.12698364 C-5.46473602 101.15012058 -5.48238581 86.17325892 -5.49321842 71.19638157 C-5.49838121 64.24282284 -5.50542359 57.28927538 -5.5168457 50.33572388 C-5.52785319 43.63141156 -5.53368246 36.92711339 -5.53628349 30.22279167 C-5.53813827 27.65860751 -5.54175989 25.09442402 -5.54713631 22.53024483 C-5.55434284 18.95253206 -5.55539736 15.37486846 -5.55493164 11.79714966 C-5.55852692 10.72541 -5.56212219 9.65367035 -5.56582642 8.54945374 C-5.56445175 7.58045135 -5.56307709 6.61144897 -5.56166077 5.61308289 C-5.56258256 4.76595513 -5.56350435 3.91882738 -5.56445408 3.04602909 C-5.32587475 -0.67483774 -3.21776711 0.00144692 0 0 Z " fill="#27A2EC" transform="translate(58.44140625,130.87301635742188)"/>
<path d="M0 0 C1 1 1 1 1.12304783 2.91904545 C1.12212604 3.7661732 1.12120424 4.61330095 1.12025452 5.48609924 C1.12231651 6.93960281 1.12231651 6.93960281 1.12442017 8.42247009 C1.11902725 10.03007957 1.11902725 10.03007957 1.11352539 11.67016602 C1.11367142 12.79197266 1.11381744 13.9137793 1.1139679 15.06958008 C1.1132682 18.79770811 1.10547315 22.52578689 1.09765625 26.25390625 C1.09579227 28.83080518 1.09436827 31.40770447 1.09336853 33.98460388 C1.08993342 40.08675115 1.0820426 46.18887794 1.07201904 52.29101747 C1.06085689 59.2364925 1.0553472 66.18196835 1.05032361 73.12745011 C1.03985996 87.41830966 1.02226115 101.7091542 1 116 C-6.11182189 116.66283407 -13.15145516 117.14828208 -20.29418945 117.12939453 C-21.13991516 117.13114685 -21.98564087 117.13289917 -22.85699463 117.13470459 C-25.60911204 117.1390489 -28.36116336 117.1362108 -31.11328125 117.1328125 C-33.05559806 117.13348786 -34.9979148 117.13445981 -36.94023132 117.13571167 C-40.99556286 117.13717878 -45.05087223 117.13506671 -49.10620117 117.13037109 C-54.26325155 117.12468593 -59.42024972 117.12795146 -64.57729816 117.13394356 C-68.58483766 117.13758576 -72.59236512 117.13639371 -76.59990501 117.13381577 C-78.49940179 117.13315598 -80.39889972 117.13394111 -82.29839516 117.13629532 C-93.24613573 117.14688638 -104.08637551 116.91260722 -115 116 C-116.04603054 100.48876837 -110.78723205 87.05002644 -100.6875 75.3125 C-99.800625 74.549375 -98.91375 73.78625 -98 73 C-96.93845703 72.06220703 -96.93845703 72.06220703 -95.85546875 71.10546875 C-85.25758284 62.10978291 -72.14310212 56.49678101 -58 57 C-58.05800781 56.45214844 -58.11601562 55.90429688 -58.17578125 55.33984375 C-58.88813887 42.82270273 -53.76547325 31.55346032 -46 22 C-45.56300781 21.39027344 -45.12601562 20.78054687 -44.67578125 20.15234375 C-36.12787878 8.88348734 -22.1132647 2.48873783 -8.4921875 0.30859375 C-5.62685852 -0.04620404 -2.88181612 -0.2275118 0 0 Z " fill="#27A2EC" transform="translate(369,131)"/>
<path d="M0 0 C4.30184883 2.74586096 7.2309646 5.1408597 9.44921875 9.8359375 C10.24556169 15.56817178 10.24070931 20.9891262 7.94921875 26.3359375 C3.09208197 31.19307428 -1.0201053 34.10413228 -8.05078125 34.5234375 C-13.90964989 34.25490602 -17.52230065 31.9784317 -21.55078125 27.8359375 C-25.38667572 23.1677263 -25.90538535 19.24206223 -25.828125 13.3359375 C-25.26291238 8.24106316 -22.16858438 5.25402778 -18.48828125 2.0234375 C-13.052227 -2.02468801 -6.24108328 -2.84815133 0 0 Z " fill="#28A3EC" transform="translate(292.55078125,146.1640625)"/>
<path d="M0 0 C3.88871415 2.67993312 6.4322172 6.1062882 8.125 10.5 C9.08310606 16.41288314 8.63623886 21.51630613 5.125 26.5 C0.78335575 30.86217212 -2.7374958 33.58393786 -9.0625 33.875 C-14.38360603 33.81433592 -17.84337058 31.85665074 -21.875 28.5 C-26.49366865 23.40762175 -27.29465663 20.16089014 -27.21484375 13.39453125 C-26.5973369 8.13507632 -24.2201405 4.65021973 -20.37109375 1.12109375 C-14.5575352 -2.89936722 -6.29586176 -3.07919876 0 0 Z " fill="#2AA3EA" transform="translate(193.875,100.5)"/>
<path d="M0 0 C8.17216981 7.39386792 8.17216981 7.39386792 8.625 12.375 C8.7796875 13.98375 8.7796875 13.98375 8.9375 15.625 C8.49085659 20.98472094 6.92999584 25.2533561 2.90625 28.95703125 C-2.27742076 32.76790785 -6.87989528 34.05414593 -13.375 33.375 C-19.23556635 31.19165175 -22.93965872 27.52801193 -26.375 22.375 C-27.50504025 16.72479875 -27.59960251 12.83538797 -25.375 7.375 C-19.29323407 -1.40977301 -9.92595706 -4.77916451 0 0 Z " fill="#28A3EC" transform="translate(147.375,200.625)"/>
<path d="M0 0 C5.04714221 3.01505312 8.86966463 6.34727515 10.7734375 12.05859375 C11.3370043 17.74845086 11.10140183 22.22767778 7.7734375 27.05859375 C3.43280512 31.43001075 -0.07549294 34.15793831 -6.4140625 34.37109375 C-11.44191669 34.28116465 -15.22160344 33.14067094 -19.2265625 30.05859375 C-22.96012028 26.12567123 -24.53090648 22.3467437 -24.7265625 16.93359375 C-24.35292047 10.6679043 -22.3810181 6.90853501 -17.7265625 2.74609375 C-12.66082511 -1.48646315 -6.173177 -2.61006256 0 0 Z " fill="#28A3EC" transform="translate(245.2265625,245.94140625)"/>
<path d="M0 0 C37.95 0 75.9 0 115 0 C116.20139488 2.40278975 116.12320302 3.88525367 116.12025452 6.56838989 C116.12231651 8.01133423 116.12231651 8.01133423 116.12442017 9.48342896 C116.11902725 11.07161942 116.11902725 11.07161942 116.11352539 12.69189453 C116.11367142 13.80409363 116.11381744 14.91629272 116.1139679 16.06219482 C116.1132691 19.7524203 116.10547824 23.4425958 116.09765625 27.1328125 C116.09579195 29.68586194 116.0943681 32.23891174 116.09336853 34.79196167 C116.08993553 40.83386916 116.08204747 46.87575508 116.07201904 52.91765392 C116.06085045 59.79543876 116.05534557 66.67322445 116.05032361 73.55101609 C116.03986466 87.7006874 116.02226986 101.85034271 116 116 C114.24835721 116.02375285 112.49662067 116.04065426 110.74487305 116.0546875 C109.76939011 116.06483887 108.79390717 116.07499023 107.78886414 116.08544922 C104.09856666 115.97238059 101.30157443 115.20054174 97.8125 114 C96.15154297 113.443125 96.15154297 113.443125 94.45703125 112.875 C93.64621094 112.58625 92.83539063 112.2975 92 112 C96 111 96 111 114 114 C113.67 77.04 113.34 40.08 113 2 C76.04 2 39.08 2 1 2 C1 5.63 1 9.26 1 13 C0.67 13 0.34 13 0 13 C0 8.71 0 4.42 0 0 Z " fill="#53AAD9" transform="translate(154,31)"/>
<path d="M0 0 C0 0.66 0 1.32 0 2 C-0.99 2 -1.98 2 -3 2 C-3 39.62 -3 77.24 -3 116 C51.945 115.505 51.945 115.505 108 115 C107.01 109.06 107.01 109.06 106 103 C105.7593193 100.92015545 105.53978129 98.83722967 105.375 96.75 C105.26285156 95.38101563 105.26285156 95.38101563 105.1484375 93.984375 C105.09945312 93.32953125 105.05046875 92.6746875 105 92 C107.89717613 94.89717613 108.28571688 98.37591365 109.1875 102.25 C109.47270508 103.37728516 109.47270508 103.37728516 109.76367188 104.52734375 C109.93833984 105.26597656 110.11300781 106.00460937 110.29296875 106.765625 C110.4530542 107.43368164 110.61313965 108.10173828 110.77807617 108.79003906 C111.06540575 111.65132322 110.50620198 114.18082908 110 117 C95.17080344 117.04667875 80.34161657 117.08196856 65.51236153 117.10362434 C58.62719393 117.11394585 51.74207193 117.12802281 44.85693359 117.15087891 C38.21745783 117.17290903 31.57801712 117.18455546 24.93850327 117.18975449 C22.40025968 117.19346146 19.8620188 117.20069979 17.32379532 117.21146011 C13.77977044 117.22589229 10.23594387 117.22798142 6.69189453 117.22705078 C5.63310089 117.23424133 4.57430725 117.24143188 3.48342896 117.24884033 C2.52146606 117.246091 1.55950317 117.24334167 0.56838989 117.24050903 C-0.27044172 117.24235262 -1.10927334 117.24419621 -1.97352409 117.24609566 C-4 117 -4 117 -6 115 C-6.24609566 112.97352409 -6.24609566 112.97352409 -6.24050903 110.43161011 C-6.24325836 109.46964722 -6.24600769 108.50768433 -6.24884033 107.51657104 C-6.24164978 106.4577774 -6.23445923 105.39898376 -6.22705078 104.30810547 C-6.22748886 102.63980682 -6.22748886 102.63980682 -6.22793579 100.93780518 C-6.22653818 97.24752096 -6.21095662 93.55743661 -6.1953125 89.8671875 C-6.1915839 87.3141389 -6.18873621 84.76108887 -6.18673706 82.20803833 C-6.17987103 76.16610061 -6.16409495 70.12424918 -6.14403808 64.08234608 C-6.12170092 57.2045689 -6.11069116 50.32678832 -6.10064721 43.44898391 C-6.07972928 29.2992826 -6.04453969 15.14964525 -6 1 C-4 0 -4 0 0 0 Z " fill="#42A3DB" transform="translate(159,231)"/>
<path d="M0 0 C1 1 1 1 1.12304783 2.91904545 C1.12212604 3.7661732 1.12120424 4.61330095 1.12025452 5.48609924 C1.12231651 6.93960281 1.12231651 6.93960281 1.12442017 8.42247009 C1.11902725 10.03007957 1.11902725 10.03007957 1.11352539 11.67016602 C1.11367142 12.79197266 1.11381744 13.9137793 1.1139679 15.06958008 C1.1132682 18.79770811 1.10547315 22.52578689 1.09765625 26.25390625 C1.09579227 28.83080518 1.09436827 31.40770447 1.09336853 33.98460388 C1.08993342 40.08675115 1.0820426 46.18887794 1.07201904 52.29101747 C1.06085689 59.2364925 1.0553472 66.18196835 1.05032361 73.12745011 C1.03985996 87.41830966 1.02226115 101.7091542 1 116 C-11.54570664 117.12196753 -11.54570664 117.12196753 -17.71484375 117.14526367 C-18.88225098 117.15164352 -20.0496582 117.15802338 -21.25244141 117.16459656 C-22.46851074 117.16570938 -23.68458008 117.1668222 -24.9375 117.16796875 C-26.86215088 117.17296135 -26.86215088 117.17296135 -28.82568359 117.17805481 C-31.5148198 117.18398232 -34.20392414 117.18590081 -36.89306641 117.18530273 C-40.33388978 117.18520019 -43.77451109 117.19897523 -47.21528625 117.21607494 C-50.51851662 117.22985072 -53.82174479 117.22928201 -57.125 117.23046875 C-58.97339478 117.24124702 -58.97339478 117.24124702 -60.85913086 117.25224304 C-62.0013208 117.24916641 -63.14351074 117.24608978 -64.3203125 117.24291992 C-65.82489014 117.24505745 -65.82489014 117.24505745 -67.35986328 117.24723816 C-70.05510892 116.99483927 -71.69580368 116.37944433 -74 115 C-73.16506012 114.98969254 -72.33012024 114.97938507 -71.46987915 114.96876526 C-63.61201027 114.87090025 -55.75421858 114.76840161 -47.89647865 114.66066074 C-43.85646949 114.6054309 -39.81645309 114.55201081 -35.77636719 114.50268555 C-31.87949595 114.45504287 -27.98271391 114.40270011 -24.08594894 114.34705925 C-22.59718412 114.32663525 -21.10839484 114.30792224 -19.61958694 114.29092598 C-17.53878157 114.26688289 -15.45814525 114.23682841 -13.37744141 114.20532227 C-11.59873154 114.18200584 -11.59873154 114.18200584 -9.78408813 114.15821838 C-7.04361935 114.18670351 -7.04361935 114.18670351 -5 113 C-5.33 112.34 -5.66 111.68 -6 111 C-5.01 110.67 -4.02 110.34 -3 110 C-3 75.02 -3 40.04 -3 4 C-8.61 4 -14.22 4 -20 4 C-14.44704395 0.2980293 -6.60378438 -0.5213514 0 0 Z " fill="#47A5DB" transform="translate(369,131)"/>
<path d="M0 0 C0.01981934 0.87213135 0.03963867 1.7442627 0.06005859 2.64282227 C0.13857436 5.90643193 0.22527969 9.16961754 0.31738281 12.43286133 C0.35545293 13.84000398 0.39034245 15.24723669 0.421875 16.65454102 C0.4680078 18.68798823 0.52591568 20.72082707 0.5859375 22.75390625 C0.6173584 23.97408447 0.6487793 25.1942627 0.68115234 26.45141602 C1.02253621 30.25081456 1.84237918 33.37888083 3 37 C2 38 2 38 -1.37890625 38.09765625 C-2.77347077 38.09098369 -4.16801743 38.07902532 -5.5625 38.0625 C-6.27341797 38.05798828 -6.98433594 38.05347656 -7.71679688 38.04882812 C-9.47790013 38.03700864 -11.23896036 38.01907263 -13 38 C-16.45763598 30.50384519 -15.9731982 22.01978196 -13.5 14.25 C-11.19342691 8.6199775 -6.69515595 0 0 0 Z " fill="#2BA3EA" transform="translate(193,163)"/>
<path d="M0 0 C5.06674226 2.10926604 9.75364469 5.03252 13.125 9.4375 C13.125 10.7575 13.125 12.0775 13.125 13.4375 C12.24763184 13.45731934 11.37026367 13.47713867 10.46630859 13.49755859 C7.18967423 13.575976 3.91347139 13.66267883 0.63720703 13.75488281 C-0.77677063 13.79300238 -2.19083965 13.82788404 -3.60498047 13.859375 C-5.6458384 13.90539858 -7.6860766 13.96332667 -9.7265625 14.0234375 C-10.95197754 14.0548584 -12.17739258 14.0862793 -13.43994141 14.11865234 C-16.86948073 14.43698769 -19.66727233 15.21366816 -22.875 16.4375 C-23.875 15.4375 -23.875 15.4375 -23.97265625 12.05859375 C-23.96598369 10.66402923 -23.95402532 9.26948257 -23.9375 7.875 C-23.93298828 7.16408203 -23.92847656 6.45316406 -23.92382812 5.72070312 C-23.91200864 3.95959987 -23.89407263 2.19853964 -23.875 0.4375 C-17.08753923 -3.73170195 -7.2553418 -2.36432817 0 0 Z " fill="#27A2EC" transform="translate(223.875,157.5625)"/>
<path d="M0 0 C0 4.95 0 9.9 0 15 C-9.62584121 17.75024034 -17.69762137 18.09729564 -27 14 C-29.87312848 12.2146604 -32.47064871 10.24311985 -35 8 C-35.56847656 7.505 -36.13695312 7.01 -36.72265625 6.5 C-38 5 -38 5 -38 2 C-36.67609253 1.970271 -36.67609253 1.970271 -35.32543945 1.93994141 C-32.03578043 1.86162134 -28.74656036 1.77492145 -25.45727539 1.68261719 C-24.0364627 1.64444851 -22.61555737 1.60957487 -21.19458008 1.578125 C-19.14631145 1.53220935 -17.09867392 1.47426195 -15.05078125 1.4140625 C-13.82012939 1.3826416 -12.58947754 1.3512207 -11.3215332 1.31884766 C-6.9051298 0.8948989 -4.25086463 -1.41695488 0 0 Z " fill="#26A2EB" transform="translate(223,206)"/>
<path d="M0 0 C0.79296875 2.30859375 0.79296875 2.30859375 1 5 C1.07863281 5.81597656 1.15726563 6.63195312 1.23828125 7.47265625 C1.54068809 18.02506339 -1.07031275 26.77942329 -8.31640625 34.57421875 C-10 36 -10 36 -13 37 C-14.83669523 35.16330477 -14.19597851 32.20132701 -14.24609375 29.734375 C-14.29540039 27.81044922 -14.29540039 27.81044922 -14.34570312 25.84765625 C-14.39297163 23.80261974 -14.43735329 21.75760506 -14.47680664 19.71240234 C-14.51674456 17.7403778 -14.56879046 15.76861033 -14.62109375 13.796875 C-14.65867798 12.02328613 -14.65867798 12.02328613 -14.69702148 10.21386719 C-14.99383625 7.06538245 -15.75850187 4.87727049 -17 2 C-17 1.01 -17 0.02 -17 -1 C-15.10590022 -1.22354607 -13.2095652 -1.42819951 -11.3125 -1.625 C-9.72888672 -1.79902344 -9.72888672 -1.79902344 -8.11328125 -1.9765625 C-4.76702462 -2.00175389 -2.85151087 -1.75714724 0 0 Z " fill="#2FA4E9" transform="translate(244,179)"/>
<path d="M0 0 C1.4387146 -0.00422974 1.4387146 -0.00422974 2.90649414 -0.00854492 C3.96731201 -0.00652069 5.02812988 -0.00449646 6.12109375 -0.00241089 C7.23154053 -0.00416321 8.3419873 -0.00591553 9.48608398 -0.00772095 C13.17693621 -0.01214208 16.86774099 -0.00920055 20.55859375 -0.00582886 C23.11067718 -0.00650182 25.66276054 -0.00747178 28.21484375 -0.00872803 C33.57162137 -0.01020536 38.9283818 -0.00814391 44.28515625 -0.00338745 C50.4864309 0.00205514 56.68767268 0.00029247 62.88894653 -0.00521386 C68.8439359 -0.01029073 74.79891502 -0.00976343 80.75390625 -0.00683212 C83.2929688 -0.00616259 85.83203217 -0.00699218 88.37109375 -0.00931168 C91.91278339 -0.01183666 95.45440892 -0.00799978 98.99609375 -0.00241089 C100.05691162 -0.00443512 101.11772949 -0.00645935 102.21069336 -0.00854492 C103.16983643 -0.0057251 104.12897949 -0.00290527 105.1171875 0 C105.95564209 0.00037703 106.79409668 0.00075405 107.65795898 0.0011425 C109.55859375 0.12698364 109.55859375 0.12698364 110.55859375 1.12698364 C111.84547572 12.18151075 108.57166928 22.89261766 102.55859375 32.12698364 C102.06359375 30.14698364 102.06359375 30.14698364 101.55859375 28.12698364 C102.21859375 28.12698364 102.87859375 28.12698364 103.55859375 28.12698364 C103.74421875 27.10604614 103.74421875 27.10604614 103.93359375 26.06448364 C104.55859375 23.12698364 104.55859375 23.12698364 105.49609375 20.12698364 C106.54461768 16.58852119 107.08016964 13.02438357 107.625 9.37698364 C107.8010376 8.20651489 107.9770752 7.03604614 108.15844727 5.83010864 C108.29049561 4.93807739 108.42254395 4.04604614 108.55859375 3.12698364 C107.44492432 3.13222046 106.33125488 3.13745728 105.18383789 3.14285278 C68.6274814 3.29747624 32.1106623 2.74651023 -4.44140625 2.12698364 C-4.44140625 39.41698364 -4.44140625 76.70698364 -4.44140625 115.12698364 C-1.14140625 115.12698364 2.15859375 115.12698364 5.55859375 115.12698364 C5.55859375 115.45698364 5.55859375 115.78698364 5.55859375 116.12698364 C1.92859375 116.12698364 -1.70140625 116.12698364 -5.44140625 116.12698364 C-5.46452589 101.15012006 -5.48238581 86.17325918 -5.49321842 71.19638157 C-5.49838121 64.24282284 -5.50542359 57.28927538 -5.5168457 50.33572388 C-5.52785319 43.63141156 -5.53368246 36.92711339 -5.53628349 30.22279167 C-5.53813827 27.65860751 -5.54175989 25.09442402 -5.54713631 22.53024483 C-5.55434284 18.95253206 -5.55539736 15.37486846 -5.55493164 11.79714966 C-5.55852692 10.72541 -5.56212219 9.65367035 -5.56582642 8.54945374 C-5.56445175 7.58045135 -5.56307709 6.61144897 -5.56166077 5.61308289 C-5.56258256 4.76595513 -5.56350435 3.91882738 -5.56445408 3.04602909 C-5.32587475 -0.67483774 -3.21776711 0.00144692 0 0 Z " fill="#52A3D1" transform="translate(58.44140625,130.87301635742188)"/>
<path d="M0 0 C21.45 0 42.9 0 65 0 C65 0.33 65 0.66 65 1 C34.31 1.495 34.31 1.495 3 2 C2.67 37.97 2.34 73.94 2 111 C11.28467583 111.1374827 11.28467583 111.1374827 14 108 C16.8203125 107.8046875 16.8203125 107.8046875 20.125 107.875 C21.22070312 107.89304687 22.31640625 107.91109375 23.4453125 107.9296875 C24.28835937 107.95289063 25.13140625 107.97609375 26 108 C22.65157689 111.34842311 19.68607861 111.7871326 15 113 C10.05 113 5.1 113 0 113 C0 75.71 0 38.42 0 0 Z " fill="#3FA9E6" transform="translate(54,133)"/>
<path d="M0 0 C0.66 0.33 1.32 0.66 2 1 C2 5.95 2 10.9 2 16 C-7.62584121 18.75024034 -15.69762137 19.09729564 -25 15 C-27.87312848 13.2146604 -30.47064871 11.24311985 -33 9 C-33.56847656 8.505 -34.13695312 8.01 -34.72265625 7.5 C-36 6 -36 6 -36 3 C-35.11739502 2.97494385 -34.23479004 2.9498877 -33.32543945 2.92407227 C-30.03593385 2.8286647 -26.74658818 2.72944807 -23.45727539 2.62768555 C-22.03642225 2.58450196 -20.61552274 2.54281592 -19.19458008 2.50268555 C-17.1465053 2.44457905 -15.09866035 2.38100362 -13.05078125 2.31640625 C-11.20480347 2.26141968 -11.20480347 2.26141968 -9.3215332 2.20532227 C-6.44173016 2.02730577 -3.80412912 1.65390895 -1 1 C-2 3 -2 3 -4.0859375 4.08984375 C-7.6473016 5.20217329 -10.9005846 5.38986931 -14.625 5.5625 C-19.90632493 5.78049035 -19.90632493 5.78049035 -25 7 C-25.33 8.65 -25.66 10.3 -26 12 C-25.319375 11.7525 -24.63875 11.505 -23.9375 11.25 C-21 11 -21 11 -18.0625 12.9375 C-12.66507037 16.44341969 -6.16029311 15.23467783 0 15 C0 10.05 0 5.1 0 0 Z " fill="#3FA3DF" transform="translate(221,205)"/>
<path d="M0 0 C5.06674226 2.10926604 9.75364469 5.03252 13.125 9.4375 C13.125 10.7575 13.125 12.0775 13.125 13.4375 C12.24763184 13.45731934 11.37026367 13.47713867 10.46630859 13.49755859 C7.18967423 13.575976 3.91347139 13.66267883 0.63720703 13.75488281 C-0.77677063 13.79300238 -2.19083965 13.82788404 -3.60498047 13.859375 C-5.6458384 13.90539858 -7.6860766 13.96332667 -9.7265625 14.0234375 C-10.95197754 14.0548584 -12.17739258 14.0862793 -13.43994141 14.11865234 C-16.86948073 14.43698769 -19.66727233 15.21366816 -22.875 16.4375 C-23.875 15.4375 -23.875 15.4375 -23.97265625 12.05859375 C-23.96598369 10.66402923 -23.95402532 9.26948257 -23.9375 7.875 C-23.93298828 7.16408203 -23.92847656 6.45316406 -23.92382812 5.72070312 C-23.91200864 3.95959987 -23.89407263 2.19853964 -23.875 0.4375 C-17.08753923 -3.73170195 -7.2553418 -2.36432817 0 0 Z M-19.875 2.4375 C-19.875 5.4075 -19.875 8.3775 -19.875 11.4375 C-9.975 11.4375 -0.075 11.4375 10.125 11.4375 C10.125 10.4475 10.125 9.4575 10.125 8.4375 C7.03690305 6.67287317 5.89187864 6.4375 2.125 6.4375 C1.465 4.7875 0.805 3.1375 0.125 1.4375 C-6.88970755 0.24350723 -13.36815531 -0.81592234 -19.875 2.4375 Z " fill="#4EA4D7" transform="translate(223.875,157.5625)"/>
<path d="M0 0 C2.89717613 2.89717613 3.28571688 6.37591365 4.1875 10.25 C4.47270508 11.37728516 4.47270508 11.37728516 4.76367188 12.52734375 C4.93833984 13.26597656 5.11300781 14.00460937 5.29296875 14.765625 C5.4530542 15.43368164 5.61313965 16.10173828 5.77807617 16.79003906 C6.06540575 19.65132322 5.50620198 22.18082908 5 25 C-9.82919656 25.04667875 -24.65838343 25.08196856 -39.48763847 25.10362434 C-46.37280607 25.11394585 -53.25792807 25.12802281 -60.14306641 25.15087891 C-66.78254217 25.17290903 -73.42198288 25.18455546 -80.06149673 25.18975449 C-82.59974032 25.19346146 -85.1379812 25.20069979 -87.67620468 25.21146011 C-91.22022956 25.22589229 -94.76405613 25.22798142 -98.30810547 25.22705078 C-99.36689911 25.23424133 -100.42569275 25.24143188 -101.51657104 25.24884033 C-102.47853394 25.246091 -103.44049683 25.24334167 -104.43161011 25.24050903 C-105.27044172 25.24235262 -106.10927334 25.24419621 -106.97352409 25.24609566 C-109 25 -109 25 -111 23 C-111 21.68 -111 20.36 -111 19 C-110.01 19 -109.02 19 -108 19 C-108 20.65 -108 22.3 -108 24 C-53.055 23.505 -53.055 23.505 3 23 C2.01 17.06 2.01 17.06 1 11 C0.7593193 8.92015545 0.53978129 6.83722967 0.375 4.75 C0.26285156 3.38101562 0.26285156 3.38101562 0.1484375 1.984375 C0.09945312 1.32953125 0.05046875 0.6746875 0 0 Z " fill="#59ACDC" transform="translate(264,323)"/>
<path d="M0 0 C1.51400391 0.01740234 1.51400391 0.01740234 3.05859375 0.03515625 C4.07050781 0.04417969 5.08242187 0.05320313 6.125 0.0625 C6.90746094 0.07410156 7.68992188 0.08570313 8.49609375 0.09765625 C8.49609375 0.42765625 8.49609375 0.75765625 8.49609375 1.09765625 C5.19609375 1.42765625 1.89609375 1.75765625 -1.50390625 2.09765625 C-1.601875 2.90847656 -1.69984375 3.71929687 -1.80078125 4.5546875 C-3.973306 20.64260784 -10.16140931 35.86296897 -23.33007812 46.09179688 C-23.90306641 46.52685547 -24.47605469 46.96191406 -25.06640625 47.41015625 C-25.64326172 47.86455078 -26.22011719 48.31894531 -26.81445312 48.78710938 C-31.13060973 52.09765625 -31.13060973 52.09765625 -34.50390625 52.09765625 C-34.31640625 49.72265625 -34.31640625 49.72265625 -33.50390625 47.09765625 C-30.22662376 45.237577 -28.33793085 45.09765625 -24.50390625 45.09765625 C-24.83390625 43.44765625 -25.16390625 41.79765625 -25.50390625 40.09765625 C-23.01297814 38.8521922 -22.09309892 39.32089845 -19.50390625 40.09765625 C-19.17390625 39.10765625 -18.84390625 38.11765625 -18.50390625 37.09765625 C-17.84390625 37.09765625 -17.18390625 37.09765625 -16.50390625 37.09765625 C-16.50390625 36.43765625 -16.50390625 35.77765625 -16.50390625 35.09765625 C-15.84390625 35.09765625 -15.18390625 35.09765625 -14.50390625 35.09765625 C-14.42140625 34.19015625 -14.33890625 33.28265625 -14.25390625 32.34765625 C-13.50390625 29.09765625 -13.50390625 29.09765625 -11.50390625 27.28515625 C-8.84450789 24.37643929 -8.78675342 22.04488808 -8.38671875 18.21875 C-8.34066174 15.79223744 -8.34066174 15.79223744 -10.50390625 13.09765625 C-9.18390625 12.76765625 -7.86390625 12.43765625 -6.50390625 12.09765625 C-6.17390625 10.44765625 -5.84390625 8.79765625 -5.50390625 7.09765625 C-4.84390625 7.09765625 -4.18390625 7.09765625 -3.50390625 7.09765625 C-3.52453125 6.12828125 -3.54515625 5.15890625 -3.56640625 4.16015625 C-3.48427841 0.13589229 -3.48427841 0.13589229 0 0 Z " fill="#42A8DE" transform="translate(114.50390625,188.90234375)"/>
<path d="M0 0 C-2.05460325 3.08190487 -2.61882246 3.49494049 -5.8125 4.875 C-9.64552107 6.68080957 -12.07168228 8.91339483 -15 12 C-16.64821244 13.03013277 -18.31503702 14.03114628 -20 15 C-23.96193553 17.77222965 -23.96193553 17.77222965 -26 22 C-26.66 22 -27.32 22 -28 22 C-28.12375 23.0725 -28.2475 24.145 -28.375 25.25 C-28.92355447 28.54132679 -29.52995749 30.14670717 -31 33 C-31.54664689 34.53270371 -32.06739457 36.07487933 -32.5625 37.625 C-33.27720016 39.85427201 -33.95277469 41.90554938 -35 44 C-35.66 44 -36.32 44 -37 44 C-37 46.64 -37 49.28 -37 52 C-37.33 52 -37.66 52 -38 52 C-39.26086373 40.09184258 -34.96232559 28.48868685 -27.73046875 19.12890625 C-27.15941406 18.42636719 -26.58835937 17.72382813 -26 17 C-25.56300781 16.39027344 -25.12601562 15.78054687 -24.67578125 15.15234375 C-20.86945714 10.13439695 -6.6644467 -3.33222335 0 0 Z " fill="#4AA7DD" transform="translate(349,136)"/>
<path d="M0 0 C5.43810795 2.47791463 9.41671367 5.53230807 12 11 C12.79634294 16.73223428 12.79149056 22.1531887 10.5 27.5 C5.59523758 32.40476242 1.6278486 35.3024039 -5.5 35.3125 C-7.00152805 35.23335319 -8.50273977 35.13806703 -10 35 C-10 34.67 -10 34.34 -10 34 C-8.58461283 33.66127487 -7.16762037 33.32925376 -5.75 33 C-4.96109375 32.814375 -4.1721875 32.62875 -3.359375 32.4375 C-1 32 -1 32 3 32 C3 31.34 3 30.68 3 30 C3.99 30 4.98 30 6 30 C6.66 28.35 7.32 26.7 8 25 C8.66 25 9.32 25 10 25 C9.7525 23.4221875 9.7525 23.4221875 9.5 21.8125 C9 18 9 18 9.125 15.5 C8.93634307 11.7268615 7.90232359 9.25235969 6 6 C0.39736563 3.43212591 -5.90537254 3.41879899 -12 3 C-12 2.34 -12 1.68 -12 1 C-8.21561116 -0.89219442 -4.11182342 -0.62087362 0 0 Z " fill="#4CAADE" transform="translate(290,145)"/>
<path d="M0 0 C5.23781632 0.12324274 8.90441643 0.78159328 12.8125 4.375 C16.44783318 8.38959186 18.12423034 12.06473686 18.3125 17.5 C18.09176949 21.71335588 17.1865429 24.81393565 14.8125 28.375 C14.1525 28.705 13.4925 29.035 12.8125 29.375 C12.56092767 24.84669811 12.56092767 24.84669811 13.8125 22.5 C15.75399817 18.37431639 15.17757548 13.64086088 13.8125 9.375 C13.1525 9.375 12.4925 9.375 11.8125 9.375 C11.4825 8.715 11.1525 8.055 10.8125 7.375 C8.8325 7.375 6.8525 7.375 4.8125 7.375 C4.8125 6.055 4.8125 4.735 4.8125 3.375 C3.8225 3.705 2.8325 4.035 1.8125 4.375 C1.8125 3.715 1.8125 3.055 1.8125 2.375 C-1.1575 2.375 -4.1275 2.375 -7.1875 2.375 C-4.63346852 -0.17903148 -3.54740775 0.04892976 0 0 Z " fill="#46A5DC" transform="translate(184.1875,98.625)"/>
<path d="M0 0 C0 25.08 0 50.16 0 76 C-0.33 76 -0.66 76 -1 76 C-1.33 51.58 -1.66 27.16 -2 2 C-7.94 2 -13.88 2 -20 2 C-16.98349389 -0.01100407 -15.18685123 -0.57239395 -11.6875 -1.25 C-10.76324219 -1.44078125 -9.83898437 -1.6315625 -8.88671875 -1.828125 C-6 -2 -6 -2 0 0 Z " fill="#47ADE9" transform="translate(369,133)"/>
<path d="M0 0 C3.375 0.25 3.375 0.25 7 1 C8.125 2.875 8.125 2.875 9 5 C12.16593942 7.22471419 15.42593442 8.57357921 19 10 C19.7321875 10.34160156 20.464375 10.68320313 21.21875 11.03515625 C28.08085838 14.12545506 34.52262143 14.76559942 42 15 C42 17.31 42 19.62 42 22 C41.34 22 40.68 22 40 22 C40 20.68 40 19.36 40 18 C39.03513672 17.97873047 39.03513672 17.97873047 38.05078125 17.95703125 C23.78054016 17.20382309 10.45243807 10.62724559 0 1 C0 0.67 0 0.34 0 0 Z " fill="#4FACE1" transform="translate(170,73)"/>
<path d="M0 0 C1.24007812 -0.01675781 2.48015625 -0.03351563 3.7578125 -0.05078125 C4.78648437 0.06910156 5.81515625 0.18898437 6.875 0.3125 C7.535 1.3025 8.195 2.2925 8.875 3.3125 C8.04355469 3.30089844 7.21210938 3.28929687 6.35546875 3.27734375 C4.72544922 3.26380859 4.72544922 3.26380859 3.0625 3.25 C1.44408203 3.23259766 1.44408203 3.23259766 -0.20703125 3.21484375 C-3.19012169 3.17625234 -3.19012169 3.17625234 -6.125 4.3125 C-6.11339844 4.99957031 -6.10179687 5.68664062 -6.08984375 6.39453125 C-6.07630859 7.74611328 -6.07630859 7.74611328 -6.0625 9.125 C-6.05089844 10.01832031 -6.03929687 10.91164062 -6.02734375 11.83203125 C-6.125 14.3125 -6.125 14.3125 -7.125 17.3125 C-8.115 17.6425 -9.105 17.9725 -10.125 18.3125 C-11.125 17.3125 -11.125 17.3125 -11.22265625 13.93359375 C-11.21598369 12.53902923 -11.20402532 11.14448257 -11.1875 9.75 C-11.18298828 9.03908203 -11.17847656 8.32816406 -11.17382812 7.59570312 C-11.16200864 5.83459987 -11.14407263 4.07353964 -11.125 2.3125 C-7.46771489 0.0060212 -4.26128693 0.01334432 0 0 Z " fill="#41A7E0" transform="translate(211.125,155.6875)"/>
<path d="M0 0 C0.99 0.495 0.99 0.495 2 1 C2.33 1.99 2.66 2.98 3 4 C3.66 4.33 4.32 4.66 5 5 C5.7013284 7.32315031 6.36485174 9.65789079 7 12 C7.61680413 14.31984841 7.61680413 14.31984841 9 16 C10.4540625 16.4640625 10.4540625 16.4640625 11.9375 16.9375 C15 18 15 18 16.75 20.3125 C17.92841673 22.84609596 18.97435124 25.40168982 20 28 C20.66 28.99 21.32 29.98 22 31 C11.09653443 26.38699533 5.45085614 15.63454989 0.84765625 5.34765625 C0 3 0 3 0 0 Z " fill="#32A8E8" transform="translate(213,105)"/>
<path d="M0 0 C9.70838367 -0.62188935 9.70838367 -0.62188935 14.375 1.625 C22.54716981 9.01886792 22.54716981 9.01886792 23 14 C23.103125 15.0725 23.20625 16.145 23.3125 17.25 C22.93662605 21.76048738 21.71793456 25.35092119 19 29 C16.859375 30.23046875 16.859375 30.23046875 15 31 C15.66 29.948125 16.32 28.89625 17 27.8125 C19.8368628 22.11843847 19.98282136 16.21902925 19 10 C17.31299636 6.95592333 15.1050408 5.5525204 12 4 C12 3.34 12 2.68 12 2 C8.04 1.67 4.08 1.34 0 1 C0 0.67 0 0.34 0 0 Z " fill="#4AA5D7" transform="translate(133,199)"/>
<path d="M0 0 C1.26041675 2.5208335 0.66225891 3.35096436 0 6 C0.33 6.66 0.66 7.32 1 8 C-0.32 8.33 -1.64 8.66 -3 9 C-3.02705308 11.41674224 -3.04686438 13.8331794 -3.0625 16.25 C-3.07087891 16.93191406 -3.07925781 17.61382812 -3.08789062 18.31640625 C-3.10481414 21.8026497 -2.8533497 24.58660119 -2 28 C1.96 28 5.92 28 10 28 C10 26.02 10 24.04 10 22 C11.20628008 24.33214148 12.1654738 26.49642139 13 29 C12 30 12 30 8.62109375 30.09765625 C7.22652923 30.09098369 5.83198257 30.07902532 4.4375 30.0625 C3.72658203 30.05798828 3.01566406 30.05347656 2.28320312 30.04882812 C0.52209987 30.03700864 -1.23896036 30.01907263 -3 30 C-6.59589689 22.20409555 -5.91643466 13.69950528 -3.0625 5.75 C-1.24697337 1.24697337 -1.24697337 1.24697337 0 0 Z " fill="#53A5D5" transform="translate(183,171)"/>
<path d="M0 0 C0.33 0 0.66 0 1 0 C1 2.64 1 5.28 1 8 C2.39798828 8.12955078 2.39798828 8.12955078 3.82421875 8.26171875 C12.71151563 9.2412085 20.96527758 10.78895574 29 15 C29.99 16.485 29.99 16.485 31 18 C26.62967759 17.50337245 24.4459004 16.61053061 21 14 C15.56405333 11.9748434 10.70841393 11.76700351 5 12 C5 11.34 5 10.68 5 10 C3.35 10 1.7 10 0 10 C0 6.7 0 3.4 0 0 Z " fill="#4DA5D7" transform="translate(211,280)"/>
<path d="M0 0 C5.74772249 5.4529675 5.74772249 5.4529675 6.203125 10.05078125 C6.34381747 16.83919302 5.05945792 20.79685897 0.3125 25.875 C-0.450625 26.57625 -1.21375 27.2775 -2 28 C-2.66 27.67 -3.32 27.34 -4 27 C-2.824375 25.9790625 -2.824375 25.9790625 -1.625 24.9375 C1.45850521 21.48691084 2.04357515 19.43433338 3 15 C3.66 15 4.32 15 5 15 C4.72285156 14.25234375 4.44570312 13.5046875 4.16015625 12.734375 C3.79792969 11.74953125 3.43570313 10.7646875 3.0625 9.75 C2.52302734 8.28820312 2.52302734 8.28820312 1.97265625 6.796875 C1.18620345 4.53542839 0.52748399 2.33203448 0 0 Z " fill="#4DA6D7" transform="translate(250,250)"/>
<path d="M0 0 C0.99 0.33 1.98 0.66 3 1 C2.34 1 1.68 1 1 1 C0.7525 1.639375 0.505 2.27875 0.25 2.9375 C-0.1625 3.618125 -0.575 4.29875 -1 5 C-1.66 5.144375 -2.32 5.28875 -3 5.4375 C-5.20713131 5.80392701 -5.20713131 5.80392701 -6.1484375 8.046875 C-7.21447369 11.74377113 -6.98601683 15.03987414 -6.625 18.8125 C-6.56828125 19.50537109 -6.5115625 20.19824219 -6.453125 20.91210938 C-6.31269396 22.60898446 -6.15780593 24.30465248 -6 26 C-9.04851838 23.33768206 -9.64583218 21.18618358 -9.99609375 17.1171875 C-10.00824037 10.53371725 -7.33733989 6.54891745 -3 2 C-2.01 1.34 -1.02 0.68 0 0 Z " fill="#55A7D5" transform="translate(130,200)"/>
<path d="M0 0 C0.66 0.33 1.32 0.66 2 1 C-1.54143525 3.19629783 -4.39667247 3.23275752 -8.515625 3.1953125 C-10.39121094 3.18564453 -10.39121094 3.18564453 -12.3046875 3.17578125 C-13.60664063 3.15902344 -14.90859375 3.14226562 -16.25 3.125 C-17.56742188 3.11597656 -18.88484375 3.10695312 -20.2421875 3.09765625 C-23.49497462 3.07408533 -26.74739589 3.04118022 -30 3 C-29.2265625 4.175625 -29.2265625 4.175625 -28.4375 5.375 C-27.963125 6.24125 -27.48875 7.1075 -27 8 C-27.33 8.66 -27.66 9.32 -28 10 C-30.5 7.6875 -30.5 7.6875 -33 5 C-33 4.01 -33 3.02 -33 2 C-32.10692139 1.97494385 -31.21384277 1.9498877 -30.29370117 1.92407227 C-26.97814546 1.82889814 -23.66276271 1.72966717 -20.34741211 1.62768555 C-18.91288997 1.58439207 -17.47831816 1.54271301 -16.04370117 1.50268555 C-13.9808048 1.44484733 -11.91815717 1.38119247 -9.85546875 1.31640625 C-8.61434326 1.27974854 -7.37321777 1.24309082 -6.09448242 1.20532227 C-2.96446653 1.12855879 -2.96446653 1.12855879 0 0 Z " fill="#50A6D2" transform="translate(218,206)"/>
<path d="M0 0 C2.64 0 5.28 0 8 0 C2.53830572 5.756921 2.53830572 5.756921 -2.12109375 6.203125 C-8.43473241 6.33088835 -8.43473241 6.33088835 -11.5625 4.5 C-12.036875 4.005 -12.51125 3.51 -13 3 C-9.66666667 3 -6.33333333 3 -3 3 C-2.01 2.67 -1.02 2.34 0 2 C0 1.34 0 0.68 0 0 Z " fill="#49A7DD" transform="translate(189,128)"/>
<path d="M0 0 C2 3 2 3 1.625 5.6875 C1.41875 6.450625 1.2125 7.21375 1 8 C1.99 8 2.98 8 4 8 C4 8.66 4 9.32 4 10 C5.27875 9.814375 6.5575 9.62875 7.875 9.4375 C11.75 8.875 11.75 8.875 14 10 C14.33 9.34 14.66 8.68 15 8 C17.97 8.66 20.94 9.32 24 10 C24 10.33 24 10.66 24 11 C15.88303369 12.28162626 8.14684214 11.6976874 0 11 C0 7.37 0 3.74 0 0 Z " fill="#41A4DF" transform="translate(254,236)"/>
<path d="M0 0 C1.58052444 4.56595948 0.48980597 8.53058208 -1 13 C-1 12.34 -1 11.68 -1 11 C-3.70608417 12.35304209 -3.96183047 13.80966544 -5.125 16.5625 C-5.47820312 17.38878906 -5.83140625 18.21507812 -6.1953125 19.06640625 C-6.46085937 19.70449219 -6.72640625 20.34257812 -7 21 C-8.08724757 18.23547417 -8.01466666 17.04676607 -7.109375 14.16015625 C-6.43648438 12.62681641 -6.43648438 12.62681641 -5.75 11.0625 C-5.31171875 10.04285156 -4.8734375 9.02320313 -4.421875 7.97265625 C-3.09450053 5.19756842 -1.63148137 2.60557172 0 0 Z " fill="#3EA3DC" transform="translate(263,214)"/>
<path d="M0 0 C-4.38890161 2.59883363 -9.02300601 2.75751376 -14.00390625 3.33984375 C-17.21929106 4.04831837 -17.86438673 4.68028213 -20 7 C-22.67318858 7.66957496 -25.23825037 7.77362708 -28 8 C-22.16081267 1.43091425 -8.41929087 -2.72158472 0 0 Z " fill="#4DA4D4" transform="translate(310,189)"/>
<path d="M0 0 C3.06254377 3.68193464 5.67155839 7.48884595 8.1875 11.5625 C8.88230469 12.67753906 9.57710937 13.79257813 10.29296875 14.94140625 C11.67685451 17.42100018 12.5472596 19.23625637 13 22 C7.10143083 16.43849193 2.79646442 10.65348158 0 3 C0 2.01 0 1.02 0 0 Z " fill="#52AADF" transform="translate(157,51)"/>
<path d="M0 0 C0 9.9 0 19.8 0 30 C-0.33 30 -0.66 30 -1 30 C-1 21.09 -1 12.18 -1 3 C-2.98 4.32 -4.96 5.64 -7 7 C-7.99 7.495 -7.99 7.495 -9 8 C-7.13554727 3.64961029 -5.02378599 0 0 0 Z " fill="#579FC6" transform="translate(193,163)"/>
<path d="M0 0 C2.30259931 2.85839915 3.86268345 5.60418038 5.25 9 C5.60578125 9.845625 5.9615625 10.69125 6.328125 11.5625 C7.05204912 14.18882935 6.9128421 15.47212957 6 18 C5.5875 17.071875 5.175 16.14375 4.75 15.1875 C3.06558214 12.11945319 1.91545917 10.80959535 -1 9 C-0.835 8.2575 -0.67 7.515 -0.5 6.75 C0.11925696 3.80993422 0.11925696 3.80993422 0 0 Z " fill="#3DA3DC" transform="translate(204,260)"/>
<path d="M0 0 C1.19140625 1.625 1.19140625 1.625 2 4 C0.83984375 6.875 0.83984375 6.875 -1.0625 10 C-1.97708984 11.546875 -1.97708984 11.546875 -2.91015625 13.125 C-5.01235723 16.01699985 -7.11259835 17.91826848 -10 20 C-10 19.01 -10 18.02 -10 17 C-9.34 17 -8.68 17 -8 17 C-8 16.34 -8 15.68 -8 15 C-7.34 15 -6.68 15 -6 15 C-5.9175 14.0925 -5.835 13.185 -5.75 12.25 C-4.88708814 8.51071525 -3.68539836 7.60147966 -1 5 C-0.20318682 2.35815459 -0.20318682 2.35815459 0 0 Z " fill="#4BA6D7" transform="translate(106,209)"/>
<path d="M0 0 C0.33 1.32 0.66 2.64 1 4 C0.195625 4.2475 -0.60875 4.495 -1.4375 4.75 C-2.7059375 5.36875 -2.7059375 5.36875 -4 6 C-4.73323796 8.01508358 -4.73323796 8.01508358 -5 10 C-5.99 10.495 -5.99 10.495 -7 11 C-7.46651207 13.12576782 -7.46651207 13.12576782 -7.625 15.5625 C-7.69976562 16.38878906 -7.77453125 17.21507812 -7.8515625 18.06640625 C-7.90054687 18.70449219 -7.94953125 19.34257812 -8 20 C-8.33 20 -8.66 20 -9 20 C-9.35480978 15.01295144 -9.58540154 11.17080309 -7.3125 6.625 C-5.05050848 4.05733395 -2.77090112 2.00120637 0 0 Z " fill="#51A4D6" transform="translate(276,147)"/>
<path d="M0 0 C0.66 0.33 1.32 0.66 2 1 C0.4639189 4.47639406 -0.7819937 6.80275621 -3.625 9.375 C-6.85924882 12.94969606 -6.75901594 15.26064674 -7 20 C-7.33 20 -7.66 20 -8 20 C-8.34745899 14.20901689 -8.30075823 10.00804697 -5 5 C-2.3125 2.125 -2.3125 2.125 0 0 Z " fill="#4BA2D2" transform="translate(229,247)"/>
<path d="M0 0 C0 3 0 3 -1 6 C-1.99 6 -2.98 6 -4 6 C-4.268125 6.5775 -4.53625 7.155 -4.8125 7.75 C-6.01719859 10.0325868 -7.40798115 11.9737942 -9 14 C-10.32 13.67 -11.64 13.34 -13 13 C-4.738041 3.40546697 -4.738041 3.40546697 0 0 Z " fill="#48A6DB" transform="translate(277,199)"/>
<path d="M0 0 C1.26041675 2.5208335 0.66225891 3.35096436 0 6 C0.33 6.66 0.66 7.32 1 8 C-0.32 8.33 -1.64 8.66 -3 9 C-3 15.6 -3 22.2 -3 29 C-6.21340241 22.57319518 -5.96652885 15.65181714 -4.13671875 8.73828125 C-1.55420918 1.55420918 -1.55420918 1.55420918 0 0 Z " fill="#4CA0D0" transform="translate(183,171)"/>
<path d="M0 0 C0.99 0.495 0.99 0.495 2 1 C2.33 1.99 2.66 2.98 3 4 C3.66 4.33 4.32 4.66 5 5 C5.46729795 6.66892125 5.92942556 8.33960485 6.35546875 10.01953125 C7.05475776 12.16825567 8.01250653 13.88647978 9.1875 15.8125 C9.785625 16.864375 10.38375 17.91625 11 19 C10.67 19.66 10.34 20.32 10 21 C0 6.9 0 6.9 0 0 Z " fill="#4EAADA" transform="translate(213,105)"/>
<path d="M0 0 C-2.18144224 1.15879664 -4.36903017 2.30187378 -6.5625 3.4375 C-7.47612305 3.92573242 -7.47612305 3.92573242 -8.40820312 4.42382812 C-12.65560614 6.60371221 -16.24162667 7.56519369 -21 8 C-21 7.34 -21 6.68 -21 6 C-17.17679443 4.57741188 -14.08718695 3.75957724 -10 4 C-10 3.34 -10 2.68 -10 2 C-3.375 -1.125 -3.375 -1.125 0 0 Z " fill="#55A4D0" transform="translate(144,181)"/>
<path d="M0 0 C1.11375 0.185625 2.2275 0.37125 3.375 0.5625 C6.82568861 1.31680657 6.82568861 1.31680657 9 0 C11.4750171 1.11431765 13.67883419 2.58150978 16 4 C16 4.33 16 4.66 16 5 C9.34454208 5.54330269 5.54165256 4.77304004 0 1 C0 0.67 0 0.34 0 0 Z " fill="#3DA4E2" transform="translate(191,216)"/>
<path d="M0 0 C1 3 1 3 -0.0625 5.75 C-5.72 15.24 -5.72 15.24 -11 17 C-11 16.01 -11 15.02 -11 14 C-10.34 14 -9.68 14 -9 14 C-8.34 13.01 -7.68 12.02 -7 11 C-6.34 10.01 -5.68 9.02 -5 8 C-4.34 8 -3.68 8 -3 8 C-3 6.68 -3 5.36 -3 4 C-2.34 4 -1.68 4 -1 4 C-0.67 2.68 -0.34 1.36 0 0 Z " fill="#4DA8D3" transform="translate(242,199)"/>
<path d="M0 0 C2.4375 0.6875 2.4375 0.6875 5 2 C6.83893169 6.52660109 6.08445769 12.16714312 6 17 C5.34 16.67 4.68 16.34 4 16 C3.68380192 13.18583711 3.62023791 10.39647622 3.5390625 7.56640625 C3.28088981 4.84232731 3.28088981 4.84232731 0.9609375 3.65234375 C-0.00972656 3.32943359 -0.00972656 3.32943359 -1 3 C-0.67 2.01 -0.34 1.02 0 0 Z " fill="#50A8D4" transform="translate(239,177)"/>
<path d="M0 0 C2.61504538 1.09555635 4.6377905 2.39168715 7 4 C4.29565976 5.35217012 2.91325635 4.41075463 0.15234375 3.546875 C-3.82579118 2.53609662 -7.91696877 2.31218347 -12 2 C-7.95688404 -0.69541064 -4.75134778 -0.6753982 0 0 Z " fill="#4BA3D1" transform="translate(243,245)"/>
<path d="M0 0 C6.55925943 0.38979206 11.94526627 1.42113193 18 4 C18 4.33 18 4.66 18 5 C11.36906706 4.65226572 5.946072 4.03910346 0 1 C0 0.67 0 0.34 0 0 Z " fill="#49A5D8" transform="translate(160,232)"/>
<path d="M0 0 C7.72422049 0.66257422 15.34800303 1.76464626 23 3 C23 3.33 23 3.66 23 4 C7.25512528 4.55353075 7.25512528 4.55353075 0 1 C0 0.67 0 0.34 0 0 Z " fill="#48AADF" transform="translate(246,142)"/>
<path d="M0 0 C3.96 0 7.92 0 12 0 C12 2.31 12 4.62 12 7 C11.34 7 10.68 7 10 7 C10 5.68 10 4.36 10 3 C9.36191406 2.95101562 8.72382813 2.90203125 8.06640625 2.8515625 C7.24011719 2.77679688 6.41382813 2.70203125 5.5625 2.625 C4.73878906 2.55539063 3.91507813 2.48578125 3.06640625 2.4140625 C2.38449219 2.27742188 1.70257813 2.14078125 1 2 C0.67 1.34 0.34 0.68 0 0 Z " fill="#4DB2EB" transform="translate(200,88)"/>
<path d="M0 0 C0.66 0 1.32 0 2 0 C4 3 4 3 3.625 5.6875 C3.41875 6.450625 3.2125 7.21375 3 8 C2.34 8 1.68 8 1 8 C0.67 9.32 0.34 10.64 0 12 C-0.66 9.03 -1.32 6.06 -2 3 C-1.34 3 -0.68 3 0 3 C0 2.01 0 1.02 0 0 Z " fill="#35ABE6" transform="translate(212,92)"/>
<path d="M0 0 C1.98 0.66 3.96 1.32 6 2 C6 2.66 6 3.32 6 4 C9.96697886 5.80317221 13.6822542 6.49202991 18 7 C18 7.33 18 7.66 18 8 C11.14107924 8.35477176 6.93317906 7.62442337 1.625 2.875 C0 1 0 1 0 0 Z " fill="#51A6D8" transform="translate(124,226)"/>
<path d="M0 0 C0.33 0 0.66 0 1 0 C1 4.95 1 9.9 1 15 C-0.65 15 -2.3 15 -4 15 C-3.484375 14.401875 -2.96875 13.80375 -2.4375 13.1875 C-1.963125 12.465625 -1.48875 11.74375 -1 11 C-1.33 10.01 -1.66 9.02 -2 8 C-1.67 7.01 -1.34 6.02 -1 5 C-1.99 4.34 -2.98 3.68 -4 3 C-3.01 2.67 -2.02 2.34 -1 2 C-0.67 1.34 -0.34 0.68 0 0 Z " fill="#2DA6E3" transform="translate(220,205)"/>
<path d="M0 0 C1.32 0.33 2.64 0.66 4 1 C4 5.29 4 9.58 4 14 C3.34 14 2.68 14 2 14 C1.30436844 10.26098034 1 6.79276729 1 3 C0.67 2.01 0.34 1.02 0 0 Z " fill="#40ADE4" transform="translate(298,155)"/>
<path d="M0 0 C3.2626876 3.08632611 6.02235218 5.93483504 8 10 C7.67 10.66 7.34 11.32 7 12 C4.40334142 9.49288137 1.91890173 7.07024277 0 4 C0 2.68 0 1.36 0 0 Z " fill="#4AA6DB" transform="translate(256,310)"/>
<path d="M0 0 C7.54966887 0.8807947 7.54966887 0.8807947 10.125 1.5625 C12.76009188 2.17735477 15.30625417 2.0612215 18 2 C13.95878094 4.69414604 10.74629425 4.5569631 6 4 C2.4375 2.5 2.4375 2.5 0 1 C0 0.67 0 0.34 0 0 Z " fill="#54A8DD" transform="translate(228,276)"/>
<path d="M0 0 C4.22489602 0.53280216 6.54080716 1.87678199 9.8125 4.5625 C10.60269531 5.20316406 11.39289063 5.84382812 12.20703125 6.50390625 C12.79871094 6.99761719 13.39039063 7.49132812 14 8 C10.73204297 8 8.9178052 7.42149484 6 6 C5.34 5.01 4.68 4.02 4 3 C1.94996045 1.80767387 1.94996045 1.80767387 0 1 C0 0.67 0 0.34 0 0 Z " fill="#4BA2D4" transform="translate(178,237)"/>
<path d="M0 0 C0.66 0.66 1.32 1.32 2 2 C0.02 4.31 -1.96 6.62 -4 9 C-5 6 -5 6 -4 3 C-3.34 3 -2.68 3 -2 3 C-2 2.34 -2 1.68 -2 1 C-1.34 0.67 -0.68 0.34 0 0 Z " fill="#44A6DE" transform="translate(158,163)"/>
<path d="M0 0 C4.71374046 4.35114504 4.71374046 4.35114504 5.9375 7.125 C6 9 6 9 4 12 C3.32645501 10.56570999 2.66140299 9.12742943 2 7.6875 C1.62875 6.88699219 1.2575 6.08648437 0.875 5.26171875 C0 3 0 3 0 0 Z " fill="#3EAFDF" transform="translate(250,250)"/>
<path d="M0 0 C0.99 0 1.98 0 3 0 C1.50164772 4.66154042 -1.88463591 5.86610751 -6 8 C-5.25 5.5625 -5.25 5.5625 -4 3 C-1.875 2.1875 -1.875 2.1875 0 2 C0 1.34 0 0.68 0 0 Z " fill="#48A8DC" transform="translate(150,172)"/>
<path d="M0 0 C2.31 0.33 4.62 0.66 7 1 C7 1.66 7 2.32 7 3 C7.99 3 8.98 3 10 3 C10 3.99 10 4.98 10 6 C5.56909529 4.79157144 3.01887244 3.48331435 0 0 Z " fill="#49A9DB" transform="translate(235,136)"/>
<path d="M0 0 C3 1 3 1 4.25 2.8125 C5.11637742 5.33943414 4.88492145 6.52221994 4 9 C3.34 9 2.68 9 2 9 C1.67 9.66 1.34 10.32 1 11 C1.20625 10.113125 1.4125 9.22625 1.625 8.3125 C2.02550239 4.7747289 1.56683516 3.13367033 0 0 Z " fill="#38AAEA" transform="translate(240,190)"/>
<path d="M0 0 C2.4375 0.75 2.4375 0.75 5 2 C5.8125 4.125 5.8125 4.125 6 6 C6.99 6 7.98 6 9 6 C9 6.66 9 7.32 9 8 C5.08158173 6.69386058 2.67359191 5.16870152 0 2 C0 1.34 0 0.68 0 0 Z " fill="#4AA4D6" transform="translate(269,170)"/>
<path d="M0 0 C-0.928125 0.3403125 -0.928125 0.3403125 -1.875 0.6875 C-4.61410209 2.37929835 -5.05024472 3.99244161 -6 7 C-6.33 6.34 -6.66 5.68 -7 5 C-7.66 4.67 -8.32 4.34 -9 4 C-6.73455663 -1.01633889 -5.27613404 -1.24961069 0 0 Z " fill="#34AAE8" transform="translate(285,198)"/>
<path d="M0 0 C0.99 0 1.98 0 3 0 C6 4.22222222 6 4.22222222 6 7 C5.01 7 4.02 7 3 7 C0 2.77777778 0 2.77777778 0 0 Z " fill="#49A5DF" transform="translate(222,268)"/>
<path d="M0 0 C0.33 0 0.66 0 1 0 C1.34833144 4.87664009 0.41685712 7.77050005 -2 12 C-3.12377697 8.69564916 -2.89554742 6.9493138 -1.5625 3.75 C-1.27503906 3.04359375 -0.98757813 2.3371875 -0.69140625 1.609375 C-0.46324219 1.07828125 -0.23507812 0.5471875 0 0 Z " fill="#4DA6D7" transform="translate(258,223)"/>
<path d="M0 0 C0 0.66 0 1.32 0 2 C-3.37097383 3.49821059 -5.20442119 4 -9 4 C-9 3.34 -9 2.68 -9 2 C-3.375 0 -3.375 0 0 0 Z " fill="#4AA8D9" transform="translate(132,185)"/>
<path d="M0 0 C0.33 0.99 0.66 1.98 1 3 C0.34 3 -0.32 3 -1 3 C-1.66 4.65 -2.32 6.3 -3 8 C-3.99 8 -4.98 8 -6 8 C-6.33 8.66 -6.66 9.32 -7 10 C-6.45912682 6.21388773 -4.88277668 4.44599233 -2 2 C-1.34 2 -0.68 2 0 2 C0 1.34 0 0.68 0 0 Z " fill="#33A4E7" transform="translate(299,167)"/>
<path d="M0 0 C4.41889613 1.35021826 6.34345343 3.26115668 9 7 C8.67 7.66 8.34 8.32 8 9 C6 8 6 8 5.125 6.0625 C3.77090236 3.57998766 2.57821507 3.03128603 0 2 C0 1.34 0 0.68 0 0 Z " fill="#50A4D9" transform="translate(292,147)"/>
<path d="M0 0 C2.25 0.125 2.25 0.125 5 1 C7.3125 4.0625 7.3125 4.0625 9 7 C5.18315774 5.44499019 2.80804268 2.96404505 0 0 Z " fill="#4DAADC" transform="translate(226,129)"/>
<path d="M0 0 C1.8125 0.125 1.8125 0.125 4 1 C5.75 4.0625 5.75 4.0625 7 7 C4.13302508 5.71480435 2.02392288 4.42870746 0 2 C0 1.34 0 0.68 0 0 Z " fill="#53ACDA" transform="translate(169,124)"/>
<path d="M0 0 C0.99 0.33 1.98 0.66 3 1 C2.34 1 1.68 1 1 1 C0.731875 1.639375 0.46375 2.27875 0.1875 2.9375 C-1 5 -1 5 -4 6 C-3.6875 4.125 -3.6875 4.125 -3 2 C-2.01 1.34 -1.02 0.68 0 0 Z " fill="#48A2D8" transform="translate(130,200)"/>
<path d="M0 0 C0 2.62113708 -0.31292445 4.50935112 -1 7 C-1.99 6.67 -2.98 6.34 -4 6 C-2.25 1.125 -2.25 1.125 0 0 Z " fill="#48AADE" transform="translate(320,159)"/>
<path d="M0 0 C1.98 0.66 3.96 1.32 6 2 C6 2.66 6 3.32 6 4 C6.66 4.33 7.32 4.66 8 5 C4.33776842 4.50510384 2.33006074 3.94323463 0 1 C0 0.67 0 0.34 0 0 Z " fill="#47A5E3" transform="translate(124,226)"/>
<path d="M0 0 C0 0.66 0 1.32 0 2 C-2.59240819 3.8597711 -5.14410847 5.57205423 -8 7 C-6.13932792 2.84926997 -4.83061881 0 0 0 Z " fill="#50A5D6" transform="translate(192,164)"/>
<path d="" fill="#FFFFFF" transform="translate(0,0)"/>
<path d="" fill="#FFFFFF" transform="translate(0,0)"/>
<path d="" fill="#FFFFFF" transform="translate(0,0)"/>
<path d="" fill="#FFFFFF" transform="translate(0,0)"/>
<path d="" fill="#FFFFFF" transform="translate(0,0)"/>
<path d="" fill="#FFFFFF" transform="translate(0,0)"/>
<path d="" fill="#FFFFFF" transform="translate(0,0)"/>
<path d="" fill="#FFFFFF" transform="translate(0,0)"/>
<path d="" fill="#FFFFFF" transform="translate(0,0)"/>
<path d="" fill="#FFFFFF" transform="translate(0,0)"/>
<path d="" fill="#FFFFFF" transform="translate(0,0)"/>
<path d="" fill="#FFFFFF" transform="translate(0,0)"/>
<path d="" fill="#FFFFFF" transform="translate(0,0)"/>
<path d="" fill="#FFFFFF" transform="translate(0,0)"/>
<path d="" fill="#FFFFFF" transform="translate(0,0)"/>
<path d="" fill="#FFFFFF" transform="translate(0,0)"/>
<path d="" fill="#FFFFFF" transform="translate(0,0)"/>
<path d="" fill="#FFFFFF" transform="translate(0,0)"/>
<path d="" fill="#FFFFFF" transform="translate(0,0)"/>
<path d="" fill="#FFFFFF" transform="translate(0,0)"/>
<path d="" fill="#FFFFFF" transform="translate(0,0)"/>
<path d="" fill="#FFFFFF" transform="translate(0,0)"/>
<path d="" fill="#FFFFFF" transform="translate(0,0)"/>
<path d="" fill="#FFFFFF" transform="translate(0,0)"/>
<path d="" fill="#FFFFFF" transform="translate(0,0)"/>
<path d="" fill="#FFFFFF" transform="translate(0,0)"/>
<path d="" fill="#FFFFFF" transform="translate(0,0)"/>
<path d="" fill="#FFFFFF" transform="translate(0,0)"/>
<path d="" fill="#FFFFFF" transform="translate(0,0)"/>
<path d="" fill="#FFFFFF" transform="translate(0,0)"/>
<path d="" fill="#FFFFFF" transform="translate(0,0)"/>
<path d="" fill="#FFFFFF" transform="translate(0,0)"/>
<path d="" fill="#FFFFFF" transform="translate(0,0)"/>
<path d="" fill="#FFFFFF" transform="translate(0,0)"/>
<path d="" fill="#FFFFFF" transform="translate(0,0)"/>
<path d="" fill="#FFFFFF" transform="translate(0,0)"/>
<path d="" fill="#FFFFFF" transform="translate(0,0)"/>
<path d="" fill="#FFFFFF" transform="translate(0,0)"/>
<path d="" fill="#FFFFFF" transform="translate(0,0)"/>
<path d="" fill="#FFFFFF" transform="translate(0,0)"/>
<path d="" fill="#FFFFFF" transform="translate(0,0)"/>
<path d="" fill="#FFFFFF" transform="translate(0,0)"/>
<path d="" fill="#FFFFFF" transform="translate(0,0)"/>
<path d="" fill="#FFFFFF" transform="translate(0,0)"/>
<path d="" fill="#FFFFFF" transform="translate(0,0)"/>
<path d="" fill="#FFFFFF" transform="translate(0,0)"/>
<path d="" fill="#FFFFFF" transform="translate(0,0)"/>
<path d="" fill="#FFFFFF" transform="translate(0,0)"/>
<path d="" fill="#FFFFFF" transform="translate(0,0)"/>
<path d="" fill="#FFFFFF" transform="translate(0,0)"/>
<path d="" fill="#FFFFFF" transform="translate(0,0)"/>
<path d="" fill="#FFFFFF" transform="translate(0,0)"/>
<path d="" fill="#FFFFFF" transform="translate(0,0)"/>
<path d="" fill="#FFFFFF" transform="translate(0,0)"/>
<path d="" fill="#FFFFFF" transform="translate(0,0)"/>
<path d="" fill="#FFFFFF" transform="translate(0,0)"/>
<path d="" fill="#00FFFF" transform="translate(0,0)"/>
<path d="" fill="#FFFFFF" transform="translate(0,0)"/>
<path d="" fill="#FFFFFF" transform="translate(0,0)"/>
<path d="" fill="#FFFFFF" transform="translate(0,0)"/>
<path d="" fill="#FFFFFF" transform="translate(0,0)"/>
<path d="" fill="#FFFFFF" transform="translate(0,0)"/>
<path d="" fill="#FFFFFF" transform="translate(0,0)"/>
<path d="" fill="#FFFFFF" transform="translate(0,0)"/>
</svg>
